M48
; DRILL file {KiCad 9.0.6} date 2026-01-07T08:25:26+0000
; FORMAT={-:-/ absolute / metric / decimal}
; #@! TF.CreationDate,2026-01-07T08:25:26+00:00
; #@! TF.GenerationSoftware,Kicad,Pcbnew,9.0.6
; #@! TF.FileFunction,Plated,1,2,PTH
FMAT,2
METRIC
; #@! TA.AperFunction,Plated,PTH,ViaDrill
T1C0.300
; #@! TA.AperFunction,Plated,PTH,ViaDrill
T2C0.400
; #@! TA.AperFunction,Plated,PTH,ComponentDrill
T3C0.500
; #@! TA.AperFunction,Plated,PTH,ComponentDrill
T4C0.550
; #@! TA.AperFunction,Plated,PTH,ComponentDrill
T5C0.650
; #@! TA.AperFunction,Plated,PTH,ComponentDrill
T6C0.800
; #@! TA.AperFunction,Plated,PTH,ComponentDrill
T7C1.000
; #@! TA.AperFunction,Plated,PTH,ComponentDrill
T8C3.200
%
G90
G05
T1
X60.75Y-80.8
X62.3Y-87.1
X63.65Y-98.5
X63.85Y-105.1
X63.95Y-103.85
X64.0Y-49.85
X64.0Y-75.0
X64.025Y-100.7
X64.025Y-101.7
X64.025Y-102.65
X64.1Y-62.45
X64.15Y-55.85
X64.15Y-96.5
X64.175Y-68.8
X64.175Y-99.6
X64.2Y-92.7
X66.25Y-55.85
X66.25Y-80.85
X66.3Y-49.8
X66.3Y-62.45
X66.3Y-68.85
X66.3Y-74.9
X66.3Y-92.7
X66.3Y-96.5
X66.35Y-86.9
X68.725Y-98.575
X69.85Y-99.6
X70.688Y-74.212
X70.775Y-71.0
X71.05Y-66.25
X71.075Y-81.5
X71.1Y-78.25
X71.175Y-63.5
X71.325Y-100.7
X72.15Y-86.35
X73.0Y-81.5
X73.25Y-63.5
X73.25Y-66.25
X73.25Y-69.25
X73.25Y-72.45
X73.4Y-78.2
X73.475Y-101.7
X74.475Y-88.725
X74.95Y-62.0
X74.95Y-65.0
X74.95Y-68.0
X74.95Y-71.0
X74.95Y-74.0
X74.95Y-77.0
X74.95Y-80.0
X74.95Y-83.0
X75.122Y-102.978
X76.0Y-101.15
X76.975Y-99.5
X77.8Y-60.75
X77.8Y-63.75
X77.8Y-66.75
X77.8Y-69.75
X77.8Y-72.75
X77.8Y-75.75
X77.8Y-78.75
X77.8Y-81.75
X78.95Y-62.0
X78.95Y-65.0
X78.95Y-68.0
X78.95Y-71.0
X78.95Y-74.0
X78.95Y-77.0
X78.95Y-80.0
X78.95Y-83.0
X79.5Y-118.1
X80.5Y-101.15
X80.5Y-106.7
X80.55Y-102.15
X80.55Y-104.2
X80.55Y-107.9
X80.575Y-103.312
X80.575Y-105.3
X80.65Y-99.95
X81.275Y-116.325
X81.8Y-60.75
X81.8Y-63.75
X81.8Y-66.75
X81.8Y-69.75
X81.8Y-72.75
X81.8Y-75.75
X81.8Y-78.75
X81.8Y-81.75
X82.35Y-95.8
X82.95Y-62.0
X82.95Y-65.0
X82.95Y-68.0
X82.95Y-71.0
X82.95Y-74.0
X82.95Y-77.0
X82.95Y-80.0
X82.95Y-83.0
X83.4Y-95.0
X83.9Y-91.3
X83.9Y-96.5
X85.55Y-89.85
X85.9Y-60.75
X85.9Y-63.75
X85.9Y-66.75
X85.9Y-69.75
X85.9Y-72.75
X85.9Y-75.75
X85.9Y-78.75
X85.9Y-81.75
X86.3Y-99.95
X86.35Y-96.5
X86.45Y-101.15
X86.45Y-102.15
X86.45Y-107.9
X86.5Y-116.35
X86.525Y-103.312
X86.55Y-105.3
X86.55Y-106.7
X86.65Y-104.25
X86.7Y-119.45
X86.95Y-62.0
X86.95Y-65.0
X86.95Y-68.0
X86.95Y-71.0
X86.95Y-74.0
X86.95Y-77.0
X86.95Y-80.0
X86.95Y-83.0
X88.6Y-89.2
X88.75Y-96.25
X89.9Y-60.75
X89.9Y-63.75
X89.9Y-66.75
X89.9Y-69.75
X89.9Y-72.75
X89.9Y-75.75
X89.9Y-78.75
X89.9Y-81.75
X90.45Y-97.0
X90.95Y-62.0
X90.95Y-65.0
X90.95Y-68.0
X90.95Y-71.0
X90.95Y-74.0
X90.95Y-77.0
X90.95Y-80.0
X90.95Y-83.0
X92.075Y-89.0
X93.85Y-60.75
X93.85Y-63.75
X93.85Y-66.75
X93.85Y-69.75
X93.85Y-72.75
X93.85Y-75.75
X93.85Y-78.75
X93.85Y-81.75
X94.95Y-62.0
X94.95Y-65.0
X94.95Y-68.0
X94.95Y-71.0
X94.95Y-74.0
X94.95Y-77.0
X94.95Y-80.0
X94.95Y-83.0
X97.85Y-60.75
X97.85Y-63.75
X97.85Y-66.75
X97.85Y-69.75
X97.85Y-72.75
X97.85Y-75.75
X97.85Y-78.75
X97.85Y-81.75
X98.95Y-62.0
X98.95Y-65.0
X98.95Y-68.0
X98.95Y-71.0
X98.95Y-74.0
X98.95Y-77.0
X98.95Y-80.0
X98.95Y-83.0
X99.8Y-127.3
X99.8Y-131.05
X99.95Y-93.2
X100.675Y-95.075
X101.75Y-60.75
X101.75Y-63.75
X101.75Y-66.75
X101.75Y-69.75
X101.75Y-72.75
X101.75Y-75.75
X101.75Y-78.75
X101.75Y-81.75
X102.2Y-92.3
X102.4Y-94.3
X102.6Y-99.35
X102.75Y-97.375
X102.95Y-62.0
X102.95Y-65.0
X102.95Y-68.0
X102.95Y-71.0
X102.95Y-74.0
X102.95Y-77.0
X102.95Y-80.0
X102.95Y-83.0
X103.025Y-96.275
X103.05Y-122.3
X104.9Y-110.8
X104.9Y-114.0
X104.912Y-95.837
X105.125Y-129.125
X105.225Y-91.7
X105.85Y-60.75
X105.85Y-63.75
X105.85Y-66.75
X105.85Y-69.75
X105.85Y-72.75
X105.85Y-75.75
X105.85Y-78.75
X105.85Y-81.75
X106.0Y-110.9
X106.0Y-113.6
X106.25Y-107.75
X106.3Y-122.3
X106.75Y-130.95
X106.95Y-62.0
X106.95Y-65.0
X106.95Y-68.0
X106.95Y-71.0
X106.95Y-74.0
X106.95Y-77.0
X106.95Y-80.0
X106.95Y-83.0
X107.25Y-127.0
X109.15Y-128.8
X109.6Y-97.0
X109.95Y-60.75
X109.95Y-63.75
X109.95Y-66.75
X109.95Y-69.75
X109.95Y-72.75
X109.95Y-75.75
X109.95Y-78.75
X109.95Y-81.75
X110.95Y-62.0
X110.95Y-65.0
X110.95Y-68.0
X110.95Y-71.0
X110.95Y-74.0
X110.95Y-77.0
X110.95Y-80.0
X110.95Y-83.0
X111.6Y-97.7
X112.0Y-121.5
X112.0Y-123.9
X112.6Y-118.4
X112.6Y-119.4
X113.2Y-130.65
X113.25Y-105.0
X113.25Y-106.979
X113.4Y-121.05
X113.475Y-109.7
X113.75Y-110.75
X113.85Y-60.75
X113.85Y-63.75
X113.85Y-66.75
X113.85Y-69.75
X113.85Y-72.75
X113.85Y-75.75
X113.85Y-78.75
X113.85Y-81.75
X114.267Y-121.899
X114.3Y-129.9
X114.5Y-107.75
X114.55Y-96.75
X114.95Y-62.0
X114.95Y-65.0
X114.95Y-68.0
X114.95Y-71.0
X114.95Y-74.0
X114.95Y-77.0
X114.95Y-80.0
X114.95Y-83.0
X115.55Y-96.25
X115.6Y-121.3
X115.95Y-99.7
X116.0Y-97.625
X116.3Y-119.85
X116.6Y-130.0
X117.0Y-100.85
X117.049Y-97.674
X117.2Y-130.7
X117.275Y-119.15
X117.3Y-99.8
X117.725Y-109.475
X117.75Y-96.95
X117.85Y-60.75
X117.85Y-63.75
X117.85Y-66.75
X117.85Y-69.75
X117.85Y-72.75
X117.85Y-75.75
X117.85Y-78.75
X117.85Y-81.75
X118.0Y-110.75
X118.4Y-120.175
X118.4Y-121.3
X118.727Y-98.48
X118.95Y-62.0
X118.95Y-65.0
X118.95Y-68.0
X118.95Y-71.0
X118.95Y-74.0
X118.95Y-77.0
X118.95Y-80.0
X118.95Y-83.0
X119.175Y-101.525
X120.125Y-99.95
X120.725Y-100.725
X121.1Y-110.8
X121.1Y-119.9
X121.2Y-97.5
X121.2Y-121.3
X121.5Y-108.53
X121.9Y-60.75
X121.9Y-63.75
X121.9Y-66.75
X121.9Y-69.75
X121.9Y-72.75
X121.9Y-75.75
X121.9Y-78.75
X121.9Y-81.75
X121.918Y-102.672
X122.475Y-106.425
X122.65Y-102.1
X122.65Y-107.8
X122.95Y-62.0
X122.95Y-65.0
X122.95Y-68.0
X122.95Y-71.0
X122.95Y-74.0
X122.95Y-77.0
X122.95Y-80.0
X122.95Y-83.0
X123.6Y-98.1
X124.425Y-99.225
X125.35Y-99.6
X125.35Y-104.25
X125.9Y-60.75
X125.9Y-63.75
X125.9Y-66.75
X125.9Y-69.75
X125.9Y-72.75
X125.9Y-75.75
X125.9Y-78.75
X125.9Y-81.75
X126.3Y-105.25
X126.3Y-107.75
X126.3Y-109.35
X126.7Y-96.8
X126.95Y-62.0
X126.95Y-65.0
X126.95Y-68.0
X126.95Y-71.0
X126.95Y-74.0
X126.95Y-77.0
X126.95Y-80.0
X126.95Y-83.0
X127.4Y-104.25
X127.575Y-101.825
X128.25Y-108.8
X128.3Y-103.45
X129.3Y-109.9
X129.45Y-104.35
X129.68Y-106.93
X129.7Y-106.13
X129.794Y-110.394
X129.85Y-60.75
X129.85Y-63.75
X129.85Y-66.75
X129.85Y-69.75
X129.85Y-72.75
X129.85Y-75.75
X129.85Y-78.75
X129.85Y-81.75
X130.55Y-100.45
X130.6Y-97.1
X130.95Y-62.0
X130.95Y-65.0
X130.95Y-68.0
X130.95Y-71.0
X130.95Y-74.0
X130.95Y-77.0
X130.95Y-80.0
X130.95Y-83.0
X131.05Y-111.7
X131.2Y-121.6
X131.9Y-119.8
X132.747Y-106.115
X132.778Y-104.409
X132.8Y-103.55
X132.9Y-105.2
X132.9Y-106.9
X133.9Y-60.75
X133.9Y-63.75
X133.9Y-66.75
X133.9Y-69.75
X133.9Y-72.75
X133.9Y-75.75
X133.9Y-78.75
X133.9Y-81.75
X134.55Y-98.9
X134.9Y-95.8
X134.95Y-62.0
X134.95Y-65.0
X134.95Y-68.0
X134.95Y-71.0
X134.95Y-74.0
X134.95Y-77.0
X134.95Y-80.0
X134.95Y-83.0
X135.54Y-96.28
X135.95Y-119.7
X136.15Y-121.6
X137.9Y-60.75
X137.9Y-63.75
X137.9Y-66.75
X137.9Y-69.75
X137.9Y-72.75
X137.9Y-75.75
X137.9Y-78.75
X137.9Y-81.75
X138.95Y-62.0
X138.95Y-65.0
X138.95Y-68.0
X138.95Y-71.0
X138.95Y-74.0
X138.95Y-77.0
X138.95Y-80.0
X138.95Y-83.0
X140.3Y-99.05
X140.3Y-100.4
X141.45Y-99.15
X141.45Y-101.175
X141.9Y-60.75
X141.9Y-63.75
X141.9Y-66.75
X141.9Y-69.75
X141.9Y-72.75
X141.9Y-75.75
X141.9Y-78.75
X141.9Y-81.75
X142.95Y-62.0
X142.95Y-65.0
X142.95Y-68.0
X142.95Y-71.0
X142.95Y-74.0
X142.95Y-77.0
X142.95Y-80.0
X142.95Y-83.0
X143.6Y-100.5
X145.3Y-101.75
X145.9Y-60.75
X145.9Y-63.75
X145.9Y-66.75
X145.9Y-69.75
X145.9Y-72.75
X145.9Y-75.75
X145.9Y-78.75
X145.9Y-81.75
X146.95Y-62.0
X146.95Y-65.0
X146.95Y-68.0
X146.95Y-71.0
X146.95Y-74.0
X146.95Y-77.0
X146.95Y-80.0
X146.95Y-83.0
X149.9Y-60.75
X149.9Y-63.75
X149.9Y-66.75
X149.9Y-69.75
X149.9Y-72.75
X149.9Y-75.75
X149.9Y-78.75
X149.9Y-81.75
X150.95Y-62.0
X150.95Y-65.0
X150.95Y-68.0
X150.95Y-71.0
X150.95Y-74.0
X150.95Y-77.0
X150.95Y-80.0
X150.95Y-83.0
X153.9Y-60.75
X153.9Y-63.75
X153.9Y-66.75
X153.9Y-69.75
X153.9Y-72.75
X153.9Y-75.75
X153.9Y-78.75
X153.9Y-81.75
X154.95Y-62.0
X154.95Y-65.0
X154.95Y-68.0
X154.95Y-71.0
X154.95Y-74.0
X154.95Y-77.0
X154.95Y-80.0
X154.95Y-83.0
X157.85Y-60.75
X157.85Y-63.75
X157.85Y-66.75
X157.85Y-69.75
X157.85Y-72.75
X157.85Y-75.75
X157.85Y-78.75
X157.85Y-81.75
X158.95Y-62.0
X158.95Y-65.0
X158.95Y-68.0
X158.95Y-71.0
X158.95Y-74.0
X158.95Y-77.0
X158.95Y-80.0
X158.95Y-83.0
X161.85Y-60.75
X161.85Y-63.75
X161.85Y-66.75
X161.85Y-69.75
X161.85Y-72.75
X161.85Y-75.75
X161.85Y-78.75
X161.85Y-81.75
X162.95Y-62.0
X162.95Y-65.0
X162.95Y-68.0
X162.95Y-71.0
X162.95Y-74.0
X162.95Y-77.0
X162.95Y-80.0
X162.95Y-83.0
X165.85Y-60.75
X165.85Y-63.75
X165.85Y-66.75
X165.85Y-69.75
X165.85Y-72.75
X165.85Y-75.75
X165.85Y-78.75
X165.85Y-81.75
X166.95Y-62.0
X166.95Y-65.0
X166.95Y-68.0
X166.95Y-71.0
X166.95Y-74.0
X166.95Y-77.0
X166.95Y-80.0
X166.95Y-83.0
X169.9Y-60.75
X169.9Y-63.75
X169.9Y-66.75
X169.9Y-69.75
X169.9Y-72.75
X169.9Y-75.75
X169.9Y-78.75
X169.9Y-81.75
X170.95Y-62.0
X170.95Y-65.0
X170.95Y-68.0
X170.95Y-71.0
X170.95Y-74.0
X170.95Y-77.0
X170.95Y-80.0
X170.95Y-83.0
X173.9Y-60.75
X173.9Y-63.75
X173.9Y-66.75
X173.9Y-69.75
X173.9Y-72.75
X173.9Y-75.75
X173.9Y-78.75
X173.9Y-81.75
X174.95Y-62.0
X174.95Y-65.0
X174.95Y-68.0
X174.95Y-71.0
X174.95Y-74.0
X174.95Y-77.0
X174.95Y-80.0
X174.95Y-83.0
X177.85Y-60.75
X177.85Y-63.75
X177.85Y-66.75
X177.85Y-69.75
X177.85Y-72.75
X177.85Y-75.75
X177.85Y-78.75
X177.85Y-81.75
X178.95Y-62.0
X178.95Y-65.0
X178.95Y-68.0
X178.95Y-71.0
X178.95Y-74.0
X178.95Y-77.0
X178.95Y-80.0
X178.95Y-83.0
X181.9Y-60.75
X181.9Y-63.75
X181.9Y-66.75
X181.9Y-69.75
X181.9Y-72.75
X181.9Y-75.75
X181.9Y-78.75
X181.9Y-81.75
X182.95Y-62.0
X182.95Y-65.0
X182.95Y-68.0
X182.95Y-71.0
X182.95Y-74.0
X182.95Y-77.0
X182.95Y-80.0
X182.95Y-83.0
X185.9Y-60.75
X185.9Y-63.75
X185.9Y-66.75
X185.9Y-69.75
X185.9Y-72.75
X185.9Y-75.75
X185.9Y-78.75
X185.9Y-81.75
X186.95Y-62.0
X186.95Y-65.0
X186.95Y-68.0
X186.95Y-71.0
X186.95Y-74.0
X186.95Y-77.0
X186.95Y-80.0
X186.95Y-83.0
X189.85Y-60.75
X189.85Y-63.75
X189.85Y-66.75
X189.85Y-69.75
X189.85Y-72.75
X189.85Y-75.75
X189.85Y-78.75
X189.85Y-81.75
X190.95Y-62.0
X190.95Y-65.0
X190.95Y-68.0
X190.95Y-71.0
X190.95Y-74.0
X190.95Y-77.0
X190.95Y-80.0
X190.95Y-83.0
X193.85Y-60.75
X193.85Y-63.75
X193.85Y-66.75
X193.85Y-69.75
X193.85Y-72.75
X193.85Y-75.75
X193.85Y-78.75
X193.85Y-81.75
X194.95Y-62.0
X194.95Y-65.0
X194.95Y-68.0
X194.95Y-71.0
X194.95Y-74.0
X194.95Y-77.0
X194.95Y-80.0
X194.95Y-83.0
X197.85Y-60.75
X197.85Y-63.75
X197.85Y-66.75
X197.85Y-69.75
X197.85Y-72.75
X197.85Y-75.75
X197.85Y-78.75
X197.85Y-81.75
T2
X63.375Y-89.325
X63.4Y-85.9
X66.25Y-97.7
X66.3Y-106.2
X67.791Y-64.859
X67.925Y-97.075
X67.95Y-58.6
X68.275Y-106.5
X68.55Y-67.775
X68.8Y-73.45
X69.325Y-86.725
X71.35Y-88.75
X73.475Y-57.55
X75.95Y-93.15
X78.175Y-57.475
X78.6Y-90.55
X82.05Y-98.475
X82.075Y-109.3
X83.75Y-98.55
X83.75Y-109.25
X86.3Y-98.4
X90.2Y-110.0
X90.35Y-89.0
X90.35Y-91.575
X90.37Y-95.88
X91.65Y-88.2
X98.925Y-99.725
X99.075Y-102.05
X99.775Y-95.85
X100.85Y-102.025
X100.95Y-99.775
X104.45Y-100.1
X107.104Y-100.579
X110.75Y-106.95
X112.0Y-128.2
X112.105Y-104.67
X113.55Y-100.0
X115.85Y-100.95
X117.725Y-87.9
X119.625Y-89.375
X120.443Y-114.6
X120.85Y-90.75
X123.75Y-113.15
X124.475Y-120.175
X125.85Y-102.35
X129.2Y-120.7
X129.725Y-99.3
X129.855Y-96.145
X131.75Y-96.0
X133.2Y-126.15
X138.05Y-103.45
X140.4Y-90.7
X142.55Y-98.65
X145.5Y-98.025
T5
X114.33Y-123.07
X114.33Y-124.34
X114.33Y-125.61
X114.33Y-126.88
X114.33Y-128.15
X115.6Y-123.07
X115.6Y-124.34
X115.6Y-125.61
X115.6Y-126.88
X115.6Y-128.15
T6
X146.5Y-113.37
X146.5Y-118.45
X151.58Y-115.91
T7
X147.5Y-125.5
X150.04Y-125.5
T8
X61.0Y-43.0
X61.0Y-126.75
X202.0Y-43.0
X202.0Y-126.75
T3
X72.47Y-130.975G85X72.47Y-131.625
G05
X79.47Y-130.975G85X79.47Y-131.625
G05
T4
X73.32Y-128.6G85X73.62Y-128.6
G05
X78.32Y-128.6G85X78.62Y-128.6
G05
M30
